# xmcd
#
# Track frame offsets: 
#        150
#        12164
#        21917
#        39823
#        51400
#        62756
#        75910
#        86512
#        101481
#        112128
#        120662
#        132529
#        144285
#        155566
#        167152
#        178379
#        190344
#        202985
#        213066
#        225527
#        236753
#        248603
#        258450
#        269993
#
# Disc length: 3813 seconds
#
# Revision: 1
# Processed by: cddbd v1.5.2PL0 Copyright (c) Steve Scherf et al.
# Submitted via: ExactAudioCopy v1.0b1
#
DISCID=510ee318
DTITLE=Joe Houston - Joe Houston Blows Crazy!
DYEAR=2000
DGENRE=R&B
TTITLE0=All Night Long (mono)
TTITLE1=Blow Joe Blow (mono)
TTITLE2=Houston's Hot House (alt) (mono)
TTITLE3=Have A Ball (alt) (mono)
TTITLE4=Doin' The Lindy Hop (mono)
TTITLE5=Dig It (version 2) (mono)
TTITLE6=Boogie Woogie Woman (alt) (mono)
TTITLE7=Blowin' Crazy (mono)
TTITLE8=Goin' Crazy (alt) (mono)
TTITLE9=Celebrity Club Stomp (alt) (mono)
TTITLE10=Sentimental Journey (mono)
TTITLE11=Shtiggy Boom (mono)
TTITLE12=Joe's Gone #1 (mono)
TTITLE13=Riverside Rock (mono)
TTITLE14=Joe's Gone #2 (Time For The Blues) (alt) (mono)
TTITLE15=Yessiree (mono)
TTITLE16=Blowin' Crazy (alt) (mono)
TTITLE17=Turn Around (mono)
TTITLE18=Stompin' With Joy (mono)
TTITLE19=Crazy Twist (mono)
TTITLE20=Chitluns' Twist (mono)
TTITLE21=Roy's Twist (mono)
TTITLE22=Celebrity Club Stomp (version 2) (mono)
TTITLE23=Limbo And The Blues (mono)
EXTD=
EXTT0=
EXTT1=
EXTT2=
EXTT3=
EXTT4=
EXTT5=
EXTT6=
EXTT7=
EXTT8=
EXTT9=
EXTT10=
EXTT11=
EXTT12=
EXTT13=
EXTT14=
EXTT15=
EXTT16=
EXTT17=
EXTT18=
EXTT19=
EXTT20=
EXTT21=
EXTT22=
EXTT23=
PLAYORDER=
